# Blender v2.93.4 OBJ File: 'LimitWall.blend'
# www.blender.org
mtllib LimitWall.mtl
o Cube
v 0.010000 1.000000 -1.000000
v 0.010000 -1.000000 -1.000000
v 0.010000 1.000000 1.000000
v 0.010000 -1.000000 1.000000
v -0.010000 1.000000 -1.000000
v -0.010000 -1.000000 -1.000000
v -0.010000 1.000000 1.000000
v -0.010000 -1.000000 1.000000
vt 6.021010 -0.004919
vt 2.336570 3.679522
vt 2.336570 -0.004919
vt -1.347871 7.363961
vt -1.347871 3.679522
vt 2.336570 -7.373800
vt -1.347871 -3.689360
vt -1.347871 -7.373800
vt -1.347871 -0.004919
vt -5.032311 3.679522
vt -5.032311 -0.004919
vt 2.336570 -3.689360
vt 6.021010 3.679522
vt 2.336570 7.363961
vn 0.0000 1.0000 0.0000
vn 0.0000 0.0000 1.0000
vn -1.0000 0.0000 0.0000
vn 0.0000 -1.0000 0.0000
vn 1.0000 0.0000 0.0000
vn 0.0000 0.0000 -1.0000
usemtl Material
s off
f 5/1/1 3/2/1 1/3/1
f 3/2/2 8/4/2 4/5/2
f 7/6/3 6/7/3 8/8/3
f 2/9/4 8/10/4 6/11/4
f 1/3/5 4/5/5 2/9/5
f 5/12/6 2/9/6 6/7/6
f 5/1/1 7/13/1 3/2/1
f 3/2/2 7/14/2 8/4/2
f 7/6/3 5/12/3 6/7/3
f 2/9/4 4/5/4 8/10/4
f 1/3/5 3/2/5 4/5/5
f 5/12/6 1/3/6 2/9/6
